<?xml version="1.0" encoding="UTF-8"?>
<!-- Generator: visioncortex VTracer 0.6.4 -->
<svg version="1.1" xmlns="http://www.w3.org/2000/svg" width="318" height="318">
<path d="M0 0 C1.28 0.64 1.28 0.64 2.58 1.29 C8.14 4.35 12.62 8.21 17.26 12.51 C29.89 23.97 44.37 34.41 61 39 C61.62 39.18 62.24 39.36 62.88 39.54 C105.16 51.37 147.83 35.03 187.18 20.42 C187.81 20.19 188.43 19.96 189.07 19.72 C190.43 19.21 191.79 18.69 193.14 18.16 C197.31 16.54 200.51 15.66 205 16 C202.37 19.07 199.13 20.68 195.56 22.44 C194.53 22.95 194.53 22.95 193.48 23.46 C139.33 49.7 77.44 69.93 17 56 C16.19 55.82 15.39 55.65 14.56 55.46 C-14.26 49.07 -46.23 35.42 -67 14 C-65.01 8.03 -58.03 5.06 -52.69 2.28 C-36.89 -5.17 -16.24 -8.3 0 0 Z " fill="#245FB6" transform="translate(91,151)"/>
<circle cx="168.4" cy="138.8" r="38.8" fill="#FF0202" />
<circle cx="159.5" cy="133.4" r="4.6" fill="#FFF0F0" />
</svg>
